<?xml version="1.0" encoding="UTF-8"?>
<svg xmlns="http://www.w3.org/2000/svg" width="980" height="316" viewBox="0 0 980 316">
<style>
    .t { font: 600 16px ui-sans-serif, system-ui, -apple-system, Segoe UI, Roboto, Arial; fill: #0f172a; }
    .s { font: 12px ui-sans-serif, system-ui, -apple-system, Segoe UI, Roboto, Arial; fill: #334155; }
    .l { font: 12px ui-monospace, SFMono-Regular, Menlo, Monaco, Consolas, 'Liberation Mono', 'Courier New', monospace; fill: #0f172a; }
  </style>
<rect x="0" y="0" width="980" height="316" rx="14" fill="#ffffff" stroke="#e2e8f0"/>
<text class="t" x="24" y="42">transformComment Speedup (x100000): baseline / head</text>
<text class="s" x="956" y="42" text-anchor="end">speedup (x) higher is better</text>
<text class="l" x="24" y="75">payload=uidCommaHeavy256</text>
<rect x="384" y="64" width="416" height="14" rx="6" fill="#eef2ff"/>
<rect x="384" y="64" width="416" height="14" rx="6" fill="#f97316" opacity="0.92"/>
<text class="l" x="812" y="75">1.568x</text>
<rect x="24" y="84" width="932" height="26" fill="#f8fafc"/>
<text class="l" x="24" y="101">payload=base</text>
<rect x="384" y="90" width="416" height="14" rx="6" fill="#eef2ff"/>
<rect x="384" y="90" width="398.7307786132952" height="14" rx="6" fill="#f97316" opacity="0.92"/>
<text class="l" x="812" y="101">1.503x</text>
<text class="l" x="24" y="127">payload=textLong256</text>
<rect x="384" y="116" width="416" height="14" rx="6" fill="#eef2ff"/>
<rect x="384" y="116" width="392.4855449327936" height="14" rx="6" fill="#f97316" opacity="0.92"/>
<text class="l" x="812" y="127">1.479x</text>
<rect x="24" y="136" width="932" height="26" fill="#f8fafc"/>
<text class="l" x="24" y="153">payload=textShort8</text>
<rect x="384" y="142" width="416" height="14" rx="6" fill="#eef2ff"/>
<rect x="384" y="142" width="390.4344982023248" height="14" rx="6" fill="#f97316" opacity="0.92"/>
<text class="l" x="812" y="153">1.472x</text>
<text class="l" x="24" y="179">payload=textVeryLong1024</text>
<rect x="384" y="168" width="416" height="14" rx="6" fill="#eef2ff"/>
<rect x="384" y="168" width="378.6065089591377" height="14" rx="6" fill="#f97316" opacity="0.92"/>
<text class="l" x="812" y="179">1.427x</text>
<rect x="24" y="188" width="932" height="26" fill="#f8fafc"/>
<text class="l" x="24" y="205">payload=gradient50%</text>
<rect x="384" y="194" width="416" height="14" rx="6" fill="#eef2ff"/>
<rect x="384" y="194" width="355.14135393453194" height="14" rx="6" fill="#f97316" opacity="0.92"/>
<text class="l" x="812" y="205">1.339x</text>
<text class="l" x="24" y="231">payload=gradient100%</text>
<rect x="384" y="220" width="416" height="14" rx="6" fill="#eef2ff"/>
<rect x="384" y="220" width="348.2561726541769" height="14" rx="6" fill="#f97316" opacity="0.92"/>
<text class="l" x="812" y="231">1.313x</text>
<rect x="24" y="240" width="932" height="26" fill="#f8fafc"/>
<text class="l" x="24" y="257">payload=worstCase</text>
<rect x="384" y="246" width="416" height="14" rx="6" fill="#eef2ff"/>
<rect x="384" y="246" width="345.27819145001274" height="14" rx="6" fill="#f97316" opacity="0.92"/>
<text class="l" x="812" y="257">1.302x</text>
<text class="l" x="24" y="283">payload=uidCommaHeavy64</text>
<rect x="384" y="272" width="416" height="14" rx="6" fill="#eef2ff"/>
<rect x="384" y="272" width="248.78808163683462" height="14" rx="6" fill="#f97316" opacity="0.92"/>
<text class="l" x="812" y="283">0.938x</text>
</svg>